<svg xmlns="http://www.w3.org/2000/svg" width="612" height="128" viewBox="0 0 612 128" preserveAspectRatio="xMinYMid" aria-hidden="true" focusable="false"><path d="M605.1,111.3V96.2h-2.3l-.4-1.7-.8-3L601,94V87h-1.3l-.3-.4V86H599l-.6-.9-.6.9h-.4v.6l-.3.4h-1.4l-.3-.4V86H595l-.6-.9-.6.9H593v.6l-.3.4h-1v1.8h-3.1l-.5-1.7h-1.5V82.7H584l-2.2-2.9h-1l-3.1,2.9h-3.2V75.8h.1l.2-.6h-.5l-.1-1V70.4l-.5-.4-2.1-15.9-2.8-21.7L566,54.1,563.9,70l-.5.4v3.9l-.1,1h-.5l.2.6h.1V87.11L549,74.9a13.49,13.49,0,0,0-9.1-4h-.5v-.6l-.5-1.2v-20a4.13,4.13,0,0,0-.6-2.2V43.8a1.09,1.09,0,0,0-.1-.5,1.42,1.42,0,0,0-.2-.6c-.3-.8-.8-1.4-1.4-1.4a13.76,13.76,0,0,0-1.7-.8,30.84,30.84,0,0,0-8.7-1h-8.3v.1h7.9a30.08,30.08,0,0,1,8.59,1h0c.5.2,1.1.4,1.5.6v.4h0c-1.9-.9-5.3-1.5-10-1.5h-8l-.07,1.4h-.2V41l-.1-6.7-.1,6.7v1.4c-.1,0-.1,0-.1.1v.9c0,.1,0,.1.1.1v1.4l-.6-1.1h-1.5v-.6l-4.1-3.6-3,.1L501.4,44h-7.2v-.1h6.7V42.8h.3v-.5h.2a.1.1,0,0,0,.1-.1v-.6a.1.1,0,0,0-.1-.1h-.5v-.4a.22.22,0,0,0-.2-.2h-1.8v-.6a24.2,24.2,0,0,0-4.2.5v.9h-1.4v.2H493V42l-.5.13V43.7h1v.1h-3.2v.1h-.7V44h-.8v5.4c0-.3.08-.45.15-.45s.15.15.15.45v3.7h-.3V64.49c.16-.22.45-.21.5,0a.4.4,0,0,1,.1.28v1.5h-.6v1.4l-.8,2.2v1h-2a14.13,14.13,0,0,0-7.9,2.2L458.2,88.25V76.1h.1a.1.1,0,0,0,.1-.1v-.5c.1,0,.1,0,.1-.1v-.3h.2v-.4h-.4v-.9h.4v-.4h.3V73h.3v-.5h.8V72l.4-.3h.2v-.4H458V68.4h.2a.22.22,0,0,0,.2-.2v-.4a.22.22,0,0,0-.2-.2h-3V62.8h.1a.1.1,0,0,0,.1-.1v-.2a.1.1,0,0,0-.1-.1h-.2v-.9h-.3v-.3a.1.1,0,0,0-.1-.1h-.3V59.9h.1v-.4h-1.1v.4h.1v1.2h-.1a.1.1,0,0,0-.1.1v.3H453v.4h-.2a.1.1,0,0,0-.1.1v.2a.1.1,0,0,0,.1.1h.1v4.8H440.4L433,63.2V50.7c2.1-.2,1.7,3.6,5.5,3.6,0-1.1.8-1.9.8-3.1-2.6,0-3.7-3.7-6.3-3.9v-.2c.1,0,.1-.1.1-.2a.3.3,0,0,0-.6,0,.35.35,0,0,0,.1.2V63.3l-7.4,3.9H412.7V62.4h.1a.1.1,0,0,0,.1-.1v-.2a.1.1,0,0,0-.1-.1h-.2v-.5h-.1v-.3a.1.1,0,0,0-.1-.1h-.1V59.9h.1v-.4h-1.1v.4h.1v1.2h-.1a.1.1,0,0,0-.1.1v.3h-.3v.4h-.2a.1.1,0,0,0-.1.1v.2a.1.1,0,0,0,.1.1h.1v4.8h-3a.22.22,0,0,0-.2.2v.4a.22.22,0,0,0,.2.2h.2v2.9h-2.7v.4h.2l.4.3V72h.8v.5h.3v.4h.3v.4h.4v.9h-.4v.4h.2v.3c0,.1,0,.1.1.1v.5a.1.1,0,0,0,.1.1h.1V97h-.5a.1.1,0,0,0-.1.1V98a.1.1,0,0,0,.1.1h.3v.2h-.1a.1.1,0,0,0-.1.1v.9a.1.1,0,0,0,.1.1h.1v.3h-.1a.1.1,0,0,0-.1.1v.9a.1.1,0,0,0,.1.1h.1v.3h-.1a.1.1,0,0,0-.1.1v.9a.1.1,0,0,0,.1.1h.1v.3h-.1a.1.1,0,0,0-.1.1v.9a.1.1,0,0,0,.1.1h.1v.2h-.3a.1.1,0,0,0-.1.1v.4l.1.1.3.2v.2h-.1a.1.1,0,0,0-.1.1v.9a.1.1,0,0,0,.1.1h.1v.4h-.1a.1.1,0,0,0-.1.1v.9a.1.1,0,0,0,.1.1h.1v.1h-.1a.1.1,0,0,0-.1.1v.9a.1.1,0,0,0,.1.1h.1v.4h-.1a.1.1,0,0,0-.1.1v.9a.1.1,0,0,0,.1.1h.1v.4h-.1a.1.1,0,0,0-.1.1v.4H401v-4.6l-.3-.3V78l.1-.3v-.1h.1v-.4h-.3v-.4h.3v-.3h-.3V74.4h1.2v-.5h.3v-.4h.3l.2-.5h.4v-.4h-2V71.3a.22.22,0,0,0-.2-.2h-7.7V66.7h.3a.1.1,0,0,0,.1-.1v-.3a.1.1,0,0,0-.1-.1h-.5v-.3a.22.22,0,0,0-.2-.2h-3.8v-.6a.1.1,0,0,0-.1-.1h-1.7v-.3a.22.22,0,0,0-.2-.2h-.4v-.8l1.3-1.3a.71.71,0,0,0,.3-.6v-.5c0-.3-.2-.5-.5-.4h-1.1v-.5h.2a.1.1,0,0,0,.1-.1v-.1a.1.1,0,0,0-.1-.1h-.2V60a.22.22,0,0,0-.2-.2h-.1a.22.22,0,0,0-.2.2v.1h-.2a.1.1,0,0,0-.1.1v.1a.1.1,0,0,0,.1.1h.2v.5h-1.1c-.3,0-.5.1-.5.4v.5a.86.86,0,0,0,.3.6l1.3,1.3v.8h-.4a.22.22,0,0,0-.2.2V65h-1.7a.1.1,0,0,0-.1.1v.6h-3.5a.22.22,0,0,0-.2.2v.3h-.5a.1.1,0,0,0-.1.1v.3a.1.1,0,0,0,.1.1h.3v1.7H369l-.4-12.7h.4v-.6h-.4l-.2-7.6h-.5v-.4h-.7v-.6l-2.7-3.8h.2v-.4h-.5L362,21.8,359.9,1.2l-2.2,20.6-2.2,20.5h-.4v.4h.1l-2.7,3.8v1H352l-.2,7.6H351v.6h.4L351,68.4h-9.2v-.1a.47.47,0,0,0-.5-.5h-.4v-.2a.47.47,0,0,0-.5-.5H340v-.3a.22.22,0,0,0-.2-.2h-.1l-.4-1a.22.22,0,0,0-.2-.2h-.6c-.1,0-.1.1-.2.2l-.4,1h-.1a.22.22,0,0,0-.2.2v.3h-.3a.47.47,0,0,0-.5.5v.2h-.4a.47.47,0,0,0-.5.5v.1h-1v.4h-2.8l-9.4-4.1V63h.3v-.2h-.5v-.2h-.3v-.1s-.2-.4-.1-.4.2-.6.2-.9.1-1,.1-1,.1,0,.1-.5.1-1.6-.1-1.8l-.3-.3s.1-.2,0-.2-.2.1-.3-.1-.2-.2-.2-.2v-.2s.1,0,.2-.2a.37.37,0,0,0,0-.6c-.2-.2-.3-.2-.5-.1s-.2.4-.2.5-.2.1-.1.2a.49.49,0,0,1,.1.3s-.3-.2-.3-.1a.35.35,0,0,1-.1.2s-.5,0-.6-.1l-.2-.2.1-1.1s.1,0,.1-.2,0-.4-.1-.3l-.1.1a1.94,1.94,0,0,0-.3,1.3q0,.75.3.9l-.2,3.2a1,1,0,0,1-.1.3c0,.1,0,.1.1.2v1.3h-.3v.2h-.5v.2h.3v1.7l-4.1,1.8v-1a1.37,1.37,0,0,0-1.4-1.4h-1.3l-3.3-4.5V57.1h-.3v1h-.4v-.5h-.3v.5h-.9v-.5h-.3v.5h-.4v-1h-.3v2.4l-3.9,5.7H302c-.1,0-.1.1-.2.2l-.2.3h-5.4V63.5h.3a.1.1,0,0,0,.1-.1v-.1a.1.1,0,0,0-.1-.1h-.1c0-3.2-1.7-3.6-3.6-5.1l-.1-3.1-.1-5.3-.1,5.3-.1,3.1c-1.7,1.5-3.6,1.8-3.6,5.1H288a.1.1,0,0,0-.1.1v.1a.1.1,0,0,0,.1.1h.3v3.2h-.9V59.1h.9v-.3h-.2v-.2a1.38,1.38,0,0,0-1.2-1.3l-.1-.9-.1-1.4-.1,1.4-.1.9h-.2l-.6-6.2-.6-6.3h-.5l-.6,6.3-.1.5h-1V50.1h-1.6v-.3h-.4V46.1h.4v-.2H281V43.3h.2v-.5H281v-.2l-.5-.9v-.5l-.1-1.1-.1,1.1v.5l-.5.9v.2h-.2v.5h.2v2.6h-.7V32H279v-.9h.1a.22.22,0,0,0,.2-.2v-.4a.22.22,0,0,0-.2-.2h-.5a.22.22,0,0,0-.2.2v.3h-.2V28.3h-.3V25.9h-.3v-.1l-2.2-2.2h-.1V19.7h.2v-.2H275l-.1-4.9v-.4l1.4-.1-1.4-.1V12.7a.55.55,0,0,0,.5-.3c.3-.4.9-.2.9-.2s.1-1-.4-1.1-.9,1-1.2,1-.3-.5-.4-1-.9.3-.9.3.3-.2.5.6a.76.76,0,0,0,.8.6v1.3l-1.4.1,1.4.1v.4l-.1,4.9h-.4v.3h.2v3.9h-.2L272,25.8v.1h-.3v2.5h-.3v2.5h-.2v-.3a.22.22,0,0,0-.2-.2h-.5a.22.22,0,0,0-.2.2V31a.22.22,0,0,0,.2.2h.1V32h-.1V42.8h-.1v-.2l-.5-.9v-.5l-.1-1.1-.1,1.1v.5l-.5.9v.7h.2v2.6h-.3v.2h.4v3.7H269V50l-.8.2v.1H268v1.3h-4.9V43.5h.2v-.8H263l-.5-1.2h-.3V40.3h-.9v1.2h-.5V39h-1v2.5H259l-.4,1.2h-.3v.8h.2v8.6H258V65.2l-1.2.8h-.1v-.6a.1.1,0,0,0-.1-.1h-1.7V65a.22.22,0,0,0-.2-.2h-.4V64l1.3-1.3a.71.71,0,0,0,.3-.6v-.5c0-.3-.2-.5-.5-.4h-1.1v-.5h.2a.1.1,0,0,0,.1-.1v-.1a.1.1,0,0,0-.1-.1h-.2v-.1a.22.22,0,0,0-.2-.2H254a.22.22,0,0,0-.2.2v.1H253a.1.1,0,0,0-.1.1v.1a.1.1,0,0,0,.1.1h.2v.5h-1.1c-.3,0-.5.1-.5.4v.5a.86.86,0,0,0,.3.6l1.3,1.3v.8h-.4a.22.22,0,0,0-.2.2v.3h-1.7a.1.1,0,0,0-.1.1V66H247a.22.22,0,0,0-.2.2v.3h-.5a.1.1,0,0,0-.1.1v.3a.1.1,0,0,0,.1.1h.3v4.3h-7.7a.22.22,0,0,0-.2.2v1.3h-2.1v.4h.4l.2.5h.3v.4h.3v.5H239v2.1h-.3V77h.3v.4h-.3v.4h.1v.1l.1.3v27.7l-.3.3v4.6h-3.3v-25h.6V64.5l.6-.3v-.1h.6v-.3h-1.3V37.4l.6-.3V37h.6v-.3h-1.3V28.4l.6-.3V28h.6v-.3h-1.3V24.9c.1-.1.2-.1.2-.2V23.5a.27.27,0,0,0-.3-.3h-1.9a.27.27,0,0,0-.3.3v.3H220.5a.1.1,0,0,0-.1-.1H220v-.2a.27.27,0,0,0-.3-.3h-4a.27.27,0,0,0-.3.3v.2H215a.1.1,0,0,0-.1.1H195.7v-.3a.27.27,0,0,0-.3-.3h-1.9a.27.27,0,0,0-.3.3v1.3c0,.1,0,.1.1.2v2.8h-1.4v.3h.6v.1l.9.4v8.2H192v.3h.6v.1l.9.4V62.7h-3.1l-.2-.4-2.1-4-.1-2.1-.1-4.3-.1,4.3-.1,2.1-2.1,4-.2.4H174.8v-8h.9v-.3h-.4v-.3l-1.2-2.8V42.1h.9v-.3h-.4v-.3l-1.2-2.9v-.9h.1v-.4h-.1V34.5h-.8V33.4h.2V29.5h-.3V25c.5,0,.9-.1.9-.2s-.3-.1-.9-.2l-.1-.6c.3,0,.5-.1.5-.2s-.2-.2-.5-.2h-.1l-.1-.4c.3,0,.5-.1.5-.2s-.2-.2-.5-.2h-.1l-.1-.4c.3,0,.5-.1.5-.2s-.2-.2-.5-.2h-.1l-.1-.4c.3,0,.5-.1.5-.2s-.2-.2-.5-.2h-.1v-.4c.3,0,.5-.1.5-.2s-.2-.2-.5-.2h-.1l-.1-.4c.3,0,.5-.1.5-.2s-.2-.2-.5-.2h-.1l-.1-.4c.3,0,.5-.1.5-.2s-.2-.2-.5-.2h-.1v-.1a4.33,4.33,0,0,0,.1-.5c.2,0,.3-.1.3-.2s-.1-.2-.3-.2c0-.5-.1-1.1-.2-1.1s-.2.4-.2,1.1c-.2,0-.3.1-.3.2s.1.2.3.2a.75.75,0,0,0,.1.5v.1h-.1c-.3,0-.5.1-.5.2s.2.2.5.2l-.1.4h-.1c-.3,0-.5.1-.5.2s.2.2.5.2l-.1.4h-.1c-.3,0-.5.1-.5.2s.2.2.5.2l-.1.4h-.1c-.3,0-.5.1-.5.2s.2.2.5.2l-.1.4h-.1c-.3,0-.5.1-.5.2s.2.2.5.2l-.1.4h-.1c-.3,0-.5.1-.5.2s.2.2.5.2l-.1.4h-.1c-.3,0-.5.1-.5.2s.2.2.5.2l-.1.6c-.5,0-.9.1-.9.2s.3.1.9.1v4.2h-1v.4H168v-.4h-1V25.9a4.13,4.13,0,0,0,.9-.1c0-.1-.3-.1-.9-.2l-.1-.6c.3,0,.5-.1.5-.2s-.2-.2-.5-.2h-.1l-.1-.4c.3,0,.5-.1.5-.2s-.2-.2-.5-.2h-.1l-.1-.4c.3,0,.5-.1.5-.2s-.2-.2-.5-.2h-.1l-.1-.4c.3,0,.5-.1.5-.2s-.2-.2-.5-.2h-.1l-.1-.4c.3,0,.5-.1.5-.2s-.2-.2-.5-.2H166l-.1-.4c.3,0,.5-.1.5-.2s-.2-.2-.5-.2h-.1l-.1-.4c.3,0,.5-.1.5-.2s-.2-.2-.5-.2h-.1v-.1a4.33,4.33,0,0,0,.1-.5c.2,0,.3-.1.3-.2s-.1-.2-.3-.2c0-.5-.1-1.1-.2-1.1s-.2.4-.2,1.1c-.2,0-.3.1-.3.2s.1.2.3.2a.75.75,0,0,0,.1.5v.1h-.1c-.3,0-.5.1-.5.2s.2.2.5.2l-.1.4h-.1c-.3,0-.5.1-.5.2s.2.2.5.2l-.1.4h-.1c-.3,0-.5.1-.5.2s.2.2.5.2l-.1.4h-.1c-.3,0-.5.1-.5.2s.2.2.5.2l-.1.4h-.1c-.3,0-.5.1-.5.2s.2.2.5.2l-.1.4h-.1c-.3,0-.5.1-.5.2s.2.2.5.2l-.1.4h-.1a.77.77,0,0,0-.42.1l-.68-.1-.1-.6c.3,0,.5-.1.5-.2s-.2-.2-.5-.2h-.1l-.1-.4c.3,0,.5-.1.5-.2s-.2-.2-.5-.2h-.1l-.1-.4c.3,0,.5-.1.5-.2s-.2-.2-.5-.2h-.1l-.4-.5c.3,0,.5-.1.5-.2s-.2-.2-.5-.2h-.1l-.1-.4c.3,0,.5-.1.5-.2s-.2-.2-.5-.2h-.1l-.1-.4c.3,0,.5-.1.5-.2s-.2-.2-.5-.2h-.1l-.1-.4c.3,0,.5-.1.5-.2s-.2-.2-.5-.2h-.1v-.1a4.33,4.33,0,0,0,.1-.5c.2,0,.3-.1.3-.2s-.1-.2-.3-.2c0-.5-.1-1.1-.2-1.1s-.2.4-.2,1.1c-.2,0-.3.1-.3.2s.1.2.3.2a4.33,4.33,0,0,0,.1.5v.1H161c-.3,0-.5.1-.5.2s.2.2.5.2l-.1.4h-.1c-.3,0-.5.1-.5.2s.2.2.5.2l-.1.4h-.1c-.3,0-.5.1-.5.2s.2.2.5.2l-.1.4h-.1c-.3,0-.5.1-.5.2s.2.2.5.2l-.1.4h-.1c-.3,0-.5.1-.5.2s.2.2.5.2l-.1.4H160c-.3,0-.5.1-.5.2s.2.2.5.2l1,.6h-.1c-.3,0-.5.1-.5.2s.2.2.5.2l-.1.6a2.2,2.2,0,0,0-.8.1c0-.1-.2-.2-.5-.2h-.1l-.1-.4c.3,0,.5-.1.5-.2s-.2-.2-.5-.2H159l-.1-.4c.3,0,.5-.1.5-.2s-.2-.2-.5-.2h-.1l-.1-.4c.3,0,.5-.1.5-.2s-.2-.2-.5-.2h-.1l-.1-.4c.3,0,.5-.1.5-.2s-.2-.2-.5-.2h-.1l-.1-.4c.3,0,.5-.1.5-.2s-.2-.2-.5-.2h-.1l-.1-.4c.3,0,.5-.1.5-.2s-.2-.2-.5-.2H158v-.3a4.33,4.33,0,0,0,.1-.5c.2,0,.3-.1.3-.2s-.1-.2-.3-.2c0-.5-.1-1.1-.2-1.1s-.2.4-.2,1.1c-.2,0-.3.1-.3.2s.1.2.3.2a.75.75,0,0,0,.1.5v.1h-.1c-.3,0-.5.1-.5.2s.2.2.5.2l-.1.4h-.1c-.3,0-.5.1-.5.2s.2.2.5.2l-.1.4h-.1c-.3,0-.5.1-.5.2s.2.2.5.2l-.1.4h-.1c-.3,0-.5.1-.5.2s.2.2.5.2l-.1.4h-.1c-.3,0-.5.1-.5.2s.2.2.5.2l-.1.4h-.1c-.3,0-.5.1-.5.2s.2.2.5.2l-.1.4h-.1c-.3,0-.5.1-.5.2s.2.2.5.2l-.1.6a7.76,7.76,0,0,0-.9.1c-.1-.1-.4-.1-.9-.1l-.1-.6c.3,0,.5-.1.5-.2s-.2-.2-.5-.2h-.1l-.1-.4c.3,0,.5-.1.5-.2s-.2-.2-.5-.2H154l-.1-.4c.3,0,.5-.1.5-.2s-.2-.2-.5-.2h-.1l-.1-.4c.3,0,.5-.1.5-.2s-.2-.2-.5-.2h-.1l-.1-.4c.3,0,.5-.1.5-.2s-.2-.2-.5-.2h-.1l-.1-.4c.3,0,.5-.1.5-.2s-.2-.2-.5-.2h-.1l-.1-.4c.3,0,.5-.1.5-.2s-.2-.2-.5-.2H153v-.1a4.33,4.33,0,0,0,.1-.5c.2,0,.3-.1.3-.2s-.1-.2-.3-.2c0-.5-.1-1.1-.2-1.1s-.2.4-.2,1.1c-.2,0-.3.1-.3.2s.1.2.3.2a.75.75,0,0,0,.1.5v.1h-.1c-.3,0-.5.1-.5.2s.2.2.5.2l-.1.4h-.1c-.3,0-.5.1-.5.2s.2.2.5.2l-.1.4h-.1c-.3,0-.5.1-.5.2s.2.2.5.2l-.1.4H152c-.3,0-.5.1-.5.2s.2.2.5.2l-.1.4h-.1c-.3,0-.5.1-.5.2s.2.2.5.2l-.1.4h-.1c-.3,0-.5.1-.5.2s.2.2.5.2l-.1.4h-.1c-.3,0-.5.1-.5.2s.2.2.5.2l-.1.6c-.5,0-.9.1-.9.2s.3.1.9.1v3.2h-.6v.4h-.9v-.6h-2.1v.5h-.2V33h.1v.2l1,.8h-1.3v2.8h-.1v.5h.1v1.2l-1.1,2.6v.3h-.4v.3h.9v9.2l-1.2,2.8V54H145v.3h.9v8h-4.5l-.5-.6-2.3-3.1V53.9h.8v-.3H139v-.3l-1.1-2.8V41.3h.9V41h-.4v-.3l-1.1-2.8v-1h.1v-.5h-.1V33.6h-.2V27.7a4.13,4.13,0,0,0,.9-.1c0-.1-.3-.1-.9-.2l-.1-.6c.3,0,.5-.1.5-.2s-.2-.2-.5-.2h-.1l-.1-.4c.3,0,.5-.1.5-.2s-.2-.2-.5-.2h-.1l-.1-.4c.3,0,.5-.1.5-.2s-.2-.2-.5-.2h-.1l-.1-.4c.3,0,.5-.1.5-.2s-.2-.2-.5-.2H136l-.1-.4c.3,0,.5-.1.5-.2s-.2-.2-.5-.2h-.1l-.1-.4c.3,0,.5-.1.5-.2s-.2-.2-.5-.2h-.1l-.1-.4c.3,0,.5-.1.5-.2s-.2-.2-.5-.2h-.1v-.1a4.33,4.33,0,0,0,.1-.5c.2,0,.3-.1.3-.2s-.1-.2-.3-.2c0-.5-.1-1.1-.2-1.1s-.2.4-.2,1.1c-.2,0-.3.1-.3.2s.1.2.3.2a.75.75,0,0,0,.1.5v.1H135c-.3,0-.5.1-.5.2s.2.2.5.2l-.1.4h-.1c-.3,0-.5.1-.5.2s.2.2.5.2l-.1.4h-.1c-.3,0-.5.1-.5.2s.2.2.5.2l-.1.4h-.1c-.3,0-.5.1-.5.2s.2.2.5.2l-.1.4h-.1c-.3,0-.5.1-.5.2s.2.2.5.2l-.1.4H134c-.3,0-.5.1-.5.2s.2.2.5.2l-.1.4h-.1c-.3,0-.5.1-.5.2s.2.2.5.2l-.1.6c-.5,0-.9.1-.9.2s.3.1.9.1v3.2H132v1.3h-.4V30.9h-.2V28.8c.5,0,.9-.1.9-.2s-.3-.1-.9-.1l-.1-.6c.3,0,.5-.1.5-.2s-.2-.2-.5-.2h-.1l-.1-.4c.3,0,.5-.1.5-.2s-.2-.2-.5-.2H131l-.1-.4c.3,0,.5-.1.5-.2s-.2-.2-.5-.2h-.1l-.1-.4c.3,0,.5-.1.5-.2s-.2-.2-.5-.2h-.1l-.1-.4c.3,0,.5-.1.5-.2s-.2-.2-.5-.2h-.1l-.1-.4c.3,0,.5-.1.5-.2s-.2-.2-.5-.2h-.1l-.1-.4c.3,0,.5-.1.5-.2s-.2-.2-.5-.2H130v-.2a4.33,4.33,0,0,0,.1-.5c.2,0,.3-.1.3-.2s-.1-.2-.3-.2c0-.5-.1-1.1-.2-1.1s-.2.4-.2,1.1c-.2,0-.3.1-.3.2s.1.2.3.2a.75.75,0,0,0,.1.5v.1h-.1c-.3,0-.5.1-.5.2s.2.2.5.2l-.1.4h-.1c-.3,0-.5.1-.5.2s.2.2.5.2l-.1.4h-.1c-.3,0-.5.1-.5.2s.2.2.5.2l-.1.4h-.1c-.2,0-.3,0-.4.1s-.2-.1-.4-.1h-.1l-.1-.4c.3,0,.5-.1.5-.2s-.2-.2-.5-.2H128l-.1-.4c.3,0,.5-.1.5-.2s-.2-.2-.5-.2h-.1l-.1-.4c.3,0,.5-.1.5-.2s-.2-.2-.5-.2h-.1v-.1a4.33,4.33,0,0,0,.1-.5c.2,0,.3-.1.3-.2s-.1-.2-.3-.2c0-.5-.1-1.1-.2-1.1s-.2.4-.2,1.1c-.2,0-.3.1-.3.2s.1.2.3.2a.75.75,0,0,0,.1.5v.1h-.1c-.3,0-.5.1-.5.2s.2.2.5.2l-.1.4h-.1c-.3,0-.5.1-.5.2s.2.2.5.2l-.1.4h-.1c-.3,0-.5.1-.5.2s.2.2.5.2l-.1.4h-.1a.73.73,0,0,0-.45.12l-.05-.22c.3,0,.5-.1.5-.2s-.2-.2-.5-.2h-.1l-.1-.4c.3,0,.5-.1.5-.2s-.2-.2-.5-.2h-.1l-.1-.4c.3,0,.5-.1.5-.2s-.2-.2-.5-.2h-.1l-.1-.4c.3,0,.5-.1.5-.2s-.2-.2-.5-.2H125l-.1-.4c.3,0,.5-.1.5-.2s-.2-.2-.5-.2h-.1v-.1a4.33,4.33,0,0,0,.1-.5c.2,0,.3-.1.3-.2s-.1-.2-.3-.2c0-.5-.1-1.1-.2-1.1s-.2.4-.2,1.1c-.2,0-.3.1-.3.2s.1.2.3.2a.75.75,0,0,0,.1.5v.1h-.1c-.3,0-.5.1-.5.2s.2.2.5.2l-.1.4h-.1c-.3,0-.5.1-.5.2s.2.2.5.2l-.1.4H124c-.3,0-.5.1-.5.2s.2.2.5.2l-.1.4h-.1c-.2,0-.3,0-.4.1-.1-.1-.2-.1-.4-.1h-.1l-.1-.4c.3,0,.5-.1.5-.2s-.2-.2-.5-.2h-.1l-.1-.4c.3,0,.5-.1.5-.2s-.2-.2-.5-.2h-.1l-.1-.4c.3,0,.5-.1.5-.2s-.2-.2-.5-.2h-.1v-.1a4.33,4.33,0,0,0,.1-.5c.2,0,.3-.1.3-.2s-.1-.2-.3-.2c0-.5-.1-1.1-.2-1.1s-.2.4-.2,1.1c-.2,0-.3.1-.3.2s.1.2.3.2a.75.75,0,0,0,.1.5v.1H122c-.3,0-.5.1-.5.2s.2.2.5.2l-.1.4h-.1c-.3,0-.5.1-.5.2s.2.2.5.2l-.1.4h-.1c-.3,0-.5.1-.5.2s.2.2.5.2l-.1.4h-.1c-.3,0-.5.1-.5.2s.2.2.5.2l-.1.4H121c-.3,0-.5.1-.5.2s.2.2.5.2l-.1.4h-.1c-.3,0-.5.1-.5.2s.2.2.5.2l-.1.4h-.1c-.3,0-.5.1-.5.2s.2.2.5.2l-.1.6c-.5,0-.9.1-.9.2s.3.1.9.1v3.2h-1.3v1.3h-.8V28.7c.5,0,.9-.1.9-.2s-.3-.1-.9-.1l-.1-.6c.3,0,.5-.1.5-.2s-.2-.2-.5-.2h-.1l-.1-.4c.3,0,.5-.1.5-.2s-.2-.2-.5-.2H118l-.1-.4c.3,0,.5-.1.5-.2s-.2-.2-.5-.2h-.1l-.1-.4c.3,0,.5-.1.5-.2s-.2-.2-.5-.2h-.1l-.1-.4c.3,0,.5-.1.5-.2s-.2-.2-.5-.2h-.1l-.1-.4c.3,0,.5-.1.5-.2s-.2-.2-.5-.2h-.1l-.1-.4c.3,0,.5-.1.5-.2s-.2-.2-.5-.2H117v-.1a4.33,4.33,0,0,0,.1-.5c.2,0,.3-.1.3-.2s-.1-.2-.3-.2c0-.5-.1-1.1-.2-1.1s-.2.4-.2,1.1c-.2,0-.3.1-.3.2s.1.2.3.2a.75.75,0,0,0,.1.5v.1h-.1c-.3,0-.5.1-.5.2s.2.2.5.2l-.1.4h-.1c-.3,0-.5.1-.5.2s.2.2.5.2l-.1.4h-.1c-.3,0-.5.1-.5.2s.2.2.5.2l-.1.4h-.1c-.3,0-.5.1-.5.2s.2.2.5.2l-.1.4h-.1c-.3,0-.5.1-.5.2s.2.2.5.2l-.1.4h-.1c-.3,0-.5.1-.5.2s.2.2.5.2l-.1.4h-.1c-.3,0-.5.1-.5.2s.2.2.5.2l-.1.6a4.13,4.13,0,0,0-.9.1c0,.1.3.1.9.1v3.2h-.8V30.5H112v1.3h-.6V27.3a4.12,4.12,0,0,0,.9-.1c0-.1-.3-.1-.9-.2l-.1-.6c.3,0,.5-.1.5-.2s-.2-.2-.5-.2h-.1l-.1-.4c.3,0,.5-.1.5-.2s-.2-.2-.5-.2H111l-.1-.4c.3,0,.5-.1.5-.2s-.2-.2-.5-.2h-.1l-.1-.4c.3,0,.5-.1.5-.2s-.2-.2-.5-.2h-.1l-.1-.4c.3,0,.5-.1.5-.2s-.2-.2-.5-.2h-.1l-.1-.4c.3,0,.5-.1.5-.2s-.2-.2-.5-.2h-.1l-.1-.4c.3,0,.5-.1.5-.2s-.2-.2-.5-.2H110v-.1a4.33,4.33,0,0,0,.1-.5c.2,0,.3-.1.3-.2s-.1-.2-.3-.2c0-.5-.1-1.1-.2-1.1s-.2.4-.2,1.1c-.2,0-.3.1-.3.2s.1.2.3.2a4.33,4.33,0,0,0,.1.5v.1h-.1c-.3,0-.5.1-.5.2s.2.2.5.2l-.1.4h-.1c-.3,0-.5.1-.5.2s.2.2.5.2l-.1.4h-.1c-.3,0-.5.1-.5.2s.2.2.5.2l-.1.4h-.1c-.3,0-.5.1-.5.2s.2.2.5.2l-.1.4h-.1c-.3,0-.5.1-.5.2s.2.2.5.2l-.1.4h-.1c-.3,0-.5.1-.5.2s.2.2.5.2l-.1.4h-.1c-.3,0-.5.1-.5.2s.2.2.5.2l-.1.6c-.5,0-.9.1-.9.2s.3.1.9.1v5.9h-.2v3h-.1v.4h.1v1.2l-1.1,2.6v.3h-.4V41h.9v9.2L106.5,53v.4h-.4v.3h.8v8.5h-.4v23l-4.4-4.66,2.7,4.7h-.5l.4.7h-3.1l-.06-3.48-.37-.4-.07,3.88H99.3l1.44-4.33-.24-.26L99,85.9H94.6l5.48-5-.33-.36L94.5,85.3H88.9l-6-6.5V77.1l-.1-8.9-.1,8.9v1.4l-.1.2-7.1,6.5H72V83H71V81.9h1v-.3H71v-.4h.4l1.9-.8v-.2h.2v.3h.1v-.1h.1v-.6h-.4a3.54,3.54,0,0,0-1.6-1.3.9.9,0,0,0-.5-.1H67.9v-.5H66.2V75.1H62v2.8H60.6v.5H59.4V75.1h-.5V60.5h-.1V75.1H55v3.3H40.4V62.2c.6,1.4,1.5.3,2.1,1.4V62.5c-.1-1.1-1.1-.3-2.1-1.6v-.3a.1.1,0,0,0,.1-.1.2.2,0,1,0-.4,0c0,.1,0,.1.1.1V78.3H35.5v-3h-6v-.4H23.9V60.5h-.1V74.9H21.9v1.6H19v.9H11V87.5l-1.2.9v.2H11v3.9l-1.2.9v.2H11v9.5H0v14.2H.1V129H612V111.2ZM500.4,43.2h.4v.6h-.4ZM50.8,78.8h.1c.2,0,.3.1.5.1s.2.1.3.1H48.8a3.19,3.19,0,0,1,1.4-.3A3.54,3.54,0,0,1,50.8,78.8Zm-2.7-.1h.8c-.2.1-.3.2-.4.2a1.06,1.06,0,0,1-.5-.2Zm-1.1,0c.2,0,.3.1.5.1s.2.1.3.1h-.2c.1,0,.2.1.3.1H45.1l.25-.1H45a7.72,7.72,0,0,1,1.5-.2Zm-2.7,0H45c-.1.1-.2.2-.3.2s-.3-.1-.5-.2Zm-1.1,0c.2,0,.3.1.5.1s.2.1.3.1h-.2c.1,0,.2.1.3.1H41.3l.28-.1H41.2a8.87,8.87,0,0,1,1.5-.2Zm-2.8,0h.8c-.2.1-.3.2-.4.2s-.2-.1-.5-.2Zm-1.4,0h.5c.2,0,.3.1.5.1s.1.1.2.1h-.1c.1,0,.1.1.2.1H37.6l.23-.1H37.5A6.8,6.8,0,0,1,39,78.7Zm-2.3,0h.7c-.2.1-.3.2-.4.2a.36.36,0,0,1-.21-.12l-.19-.08Zm-1.3.1h.3c.2,0,.4.1.6.1s.2.1.3.1H35.4Zm.8.9h-.07a.78.78,0,0,1-.13.2h-.8v-.4h.4v-.2h1.1a.77.77,0,0,1-.3.1C36.3,79.5,36.2,79.6,36.2,79.7Zm1.4.2H36.5l.1-.1.1-.1h-.2l.1-.1a1.38,1.38,0,0,1,.4-.3h.2c.1.1.3.2.4.4h-.12A.54.54,0,0,1,37.6,79.9Zm2.6-.4-.1.1c-.1.1-.1.2-.2.3H38c-.1-.3-.2-.4-.5-.4h.37a1.83,1.83,0,0,0-.17-.2h2.6l-.1.1-.09.1Zm.4.4v-.1l.1-.1h-.4v-.2l.3-.3.3.1c.2.1.3.3.4.4h-.07a.68.68,0,0,1,.17.2Zm3.1,0H41.8c-.1-.3-.2-.4-.5-.4h.37a1.83,1.83,0,0,0-.17-.2h2.7a.77.77,0,0,1-.3.1l-.09.1H44l-.1.1C43.8,79.7,43.8,79.8,43.7,79.9Zm1.4,0h-.9l.1-.1.1-.1H44l.1-.1a2.19,2.19,0,0,0,.5-.3,1.08,1.08,0,0,1,.5.4h-.17A.68.68,0,0,1,45.1,79.9Zm2.6-.4-.1.1c-.1.1-.1.2-.2.3H45.5c-.1-.3-.2-.4-.5-.4h.47a1.82,1.82,0,0,0-.17-.2H48c-.2.1-.2.1-.3.1l-.09.1Zm.4.4.1-.1.1-.1h-.5l.1-.1c.2-.1.3-.2.5-.3a1.08,1.08,0,0,1,.5.4h-.07a.68.68,0,0,1,.17.2Zm1.2,0a1.38,1.38,0,0,0-.3-.4h3.4l0,0a.52.52,0,0,1,.38.38Zm5.7,0H53.1a1.28,1.28,0,0,0-.26-.35.58.58,0,0,0-.24,0H55Zm0-.9H52.3a2.18,2.18,0,0,0-.5-.3H55Zm5.7.5v.4H59.5v-.6h1.2Zm0-.7v.3L59.5,79a1,1,0,0,1,.33-.13c.27-.07.59-.1.87-.17Zm7.1-.1h1.3c-.2.1-.3.2-.5.3h-.8Zm0,.9v-.3h.3l-.1.1.2-.1c-.1.1-.1.1-.2.1s-.1.1-.1.2Zm.3.1A4.38,4.38,0,0,1,69.25,79a4.82,4.82,0,0,1,1.55-.37h.5c.2,0,.3.1.5.1a3.25,3.25,0,0,1,1.3,1h-.26a1,1,0,0,1,.06.1H68Zm2.3,8.8v1.3H68.2V88.4h2.2Zm0-3.1v.2H68.2V84.4l2.2.9Zm0-1.3V85l-2.2-.9,2.2-.1Zm0-1.4v1.1H68.2V82.6h2.2Zm0-.8v.4H68.2v-.5h2.2Zm12.75-1.13L83,80.5l5.1,5.4h-2l-3.2-5.4Zm-.65-.29V80.3l3.2,5.6H82.5l-.1-5.6Zm-.7-.37-1.9,5.8H75.4Zm-10.7,4h.6v1.5l-.5-.2v-.07l-.1,0Zm2.7,4.4v1.3H71.1v-.1h0V88.4h2.7Zm6.4,1.2H74.3V88.4h5.9Zm1.9-9.5h0L82,85.9H80.2Zm4.4,9.6H80.7v-.1h-.1V88.4h5.8v.1h.1Zm6.3-1.3v1.3H87V88.4h5.8Zm6.4,1.2H93.3V88.4h5.9Zm6.2-1.2v1.3H99.6V88.4h5.8Zm4.5,1.3H106v-.1h-.1V88.4h3.9v.1h.1Zm14.3-62.1-.1-.6h.2Zm.1-1.1h-.2l-.1-.4h.4Zm.2-.9h-.6l0-.1h-.08l-.1-.4a.78.78,0,0,0,.5,0h.3l0,.1h.12Zm.1-.9h-.9l-.1-.4c.3,0,.5,0,.6-.1l0,0,0,0c.1.1.2.1.4.1Zm1.4,5.7h-.3v1.3h-.9V30.5H126Zm.6-4.7h-.17l0-.11.23,0Zm3.6,2.1h-.1v-.1h-.2l.1-.4h.2l0,.1h.13Zm.1-1.1h-.07l0,.1h-.4l-.1-.4h.13l0-.1q.3.15.3,0h.3Zm.2-1.1-.1.4h-.7V26h-.1l-.1-.4c.3,0,.5,0,.6-.1s.2.1.4.1l0,.1Zm27,3.6H157v.4h-.8v-.4h-.4V26.1a7.76,7.76,0,0,0,.9-.1,3.79,3.79,0,0,0,.8.1Zm3.1.3h-.5v-.4h-.6V26a4.12,4.12,0,0,0,.9-.1c0-.05-.09-.08-.27-.11l-.63-.09-.1-.6c.2,0,.3-.1.4-.1a2.1,2.1,0,0,1,.25,0,3.44,3.44,0,0,0,.55,0Zm3.7-.1h-.4v-.4H163V25a2.61,2.61,0,0,0,.7-.08.83.83,0,0,0,.4.08l-.1.6c-.5,0-.9.1-.9.2s.3.1.9.1v3.2h.3ZM270.5,45.9h-.1V43.3h.1Zm4.3-6.2a2.6,2.6,0,1,1,2.6-2.6A2.65,2.65,0,0,1,274.8,39.7Zm68.3,31.6h-1V69.1h1Zm3.1,0h-2.5V69.1h2.5Zm3.1,0h-2.5V69.1h2.5Zm1.6-1.1v1.1h-1V69.1h1Zm5-22.9c-.5,0-.9-.6-.9-1.4s.3-1.4.9-1.4c.4,0,.9.6.9,1.4S356.4,47.3,355.9,47.3Zm14.2,24h-1.2l-.1-2.2h1.3Zm132.7-8.5h-.4V60.6c0-.24.1-.29.19-.23s.21,0,.21.23Zm0-9.2h-.4V52.1a.22.22,0,0,1,.4,0Zm3.3,3.4h-.6V54c0-.5.6-.5.6,0Zm4.7,13.9a.47.47,0,0,1-.5.5h-2.8c-.2,0-.4-.2-.5-.5V65.7a.47.47,0,0,1,.5-.5h2.8a.47.47,0,0,1,.5.5Zm10.6-16.2H521v-3a.44.44,0,0,1,.05-.23c.1-.24.35-.17.35.23Zm11.5,10.7h-.7V63.9a.34.34,0,0,1,.38-.37h.08a.32.32,0,0,1,.24.35Zm.3-13.8h-.5V47.8c0-.6.5-.6.5,0ZM274.9,37.1l1,.8-.2.3-1-.8a.22.22,0,0,1-.2-.2V34.9h.4ZM101.7,78.5l-1.95,2L98.1,77,98,68.1l3.7,9ZM320.1,53.6l-.1,1.6.1-1.7v-.3l.1-.5v.6Zm-.7,5c.2-.5,0-.6-.1-.9l-.1,2.1C319.3,59.3,319.3,58.9,319.4,58.6Zm-.2,3.6c.1-.1,0-.1-.1-.4h0v.5A.1.1,0,0,1,319.2,62.2Zm-.1-5.9c0,.1.1.3.1.4v-1C319.3,55.9,319.1,56.1,319.1,56.3Zm0,0a.76.76,0,0,1,.2-.5v1C319.2,56.6,319.2,56.5,319.1,56.3Zm.3,2.3a4.3,4.3,0,0,0-.2,1.2l.1-2.1C319.5,57.8,319.6,58.1,319.4,58.6Zm-.3,3h0c.1.3.1.3.1.4a.1.1,0,0,1-.1.1ZM270.3,33.2v.1l.2.4v-.5Zm9.1.1v-.1h-.3v.5Z" fill="#fff"/></svg>
